<svg width="1200" height="630" viewBox="0 0 1200 630" fill="none" xmlns="http://www.w3.org/2000/svg">
  <defs>
    <linearGradient id="bgGradient" x1="0%" y1="0%" x2="100%" y2="100%">
      <stop offset="0%" style="stop-color:#1e293b;stop-opacity:1" />
      <stop offset="50%" style="stop-color:#3730a3;stop-opacity:1" />
      <stop offset="100%" style="stop-color:#7c3aed;stop-opacity:1" />
    </linearGradient>
    <linearGradient id="musicGradient" x1="0%" y1="0%" x2="100%" y2="100%">
      <stop offset="0%" style="stop-color:#60a5fa;stop-opacity:1" />
      <stop offset="100%" style="stop-color:#a855f7;stop-opacity:1" />
    </linearGradient>
  </defs>
  
  <!-- Background -->
  <rect width="1200" height="630" fill="url(#bgGradient)"/>
  
  <!-- Background Music Notes -->
  <g opacity="0.1" fill="white">
    <text x="100" y="150" font-size="120" font-family="Arial">♪</text>
    <text x="300" y="250" font-size="80" font-family="Arial">♫</text>
    <text x="800" y="180" font-size="100" font-family="Arial">♬</text>
    <text x="1000" y="280" font-size="90" font-family="Arial">♩</text>
    <text x="500" y="450" font-size="70" font-family="Arial">♪</text>
    <text x="150" y="550" font-size="60" font-family="Arial">♫</text>
    <text x="900" y="500" font-size="85" font-family="Arial">♪</text>
  </g>
  
  <!-- Main Icon -->
  <g transform="translate(100, 180)">
    <rect width="120" height="120" rx="24" fill="url(#musicGradient)"/>
    <path d="M45 30v45c0 4.1-3.4 7.5-7.5 7.5s-7.5-3.4-7.5-7.5 3.4-7.5 7.5-7.5c1.5 0 2.6.4 3.75 1.1V30h3.75z" fill="white"/>
    <path d="M82.5 22.5v52.5c0 4.1-3.4 7.5-7.5 7.5s-7.5-3.4-7.5-7.5 3.4-7.5 7.5-7.5c1.5 0 2.6.4 3.75 1.1V22.5h3.75z" fill="white"/>
    <circle cx="37.5" cy="75" r="5.6" fill="white"/>
    <circle cx="75" cy="75" r="5.6" fill="white"/>
    <path d="M48.75 30h30v7.5h-30z" fill="white" opacity="0.8"/>
  </g>
  
  <!-- Title -->
  <text x="280" y="280" font-size="72" font-weight="bold" fill="white" font-family="Arial, sans-serif">
    Studio Finder
  </text>
  
  <!-- Subtitle -->
  <text x="280" y="340" font-size="36" fill="rgba(255,255,255,0.9)" font-family="Arial, sans-serif">
    Connect with Music Creators Worldwide
  </text>
  
  <!-- Features -->
  <g transform="translate(280, 380)">
    <text x="0" y="30" font-size="24" fill="rgba(255,255,255,0.8)" font-family="Arial">• Find Collaborators</text>
    <text x="0" y="65" font-size="24" fill="rgba(255,255,255,0.8)" font-family="Arial">• Book Studios</text>
    <text x="0" y="100" font-size="24" fill="rgba(255,255,255,0.8)" font-family="Arial">• Grow Your Career</text>
    
    <text x="300" y="30" font-size="24" fill="rgba(255,255,255,0.8)" font-family="Arial">• Connect Artists</text>
    <text x="300" y="65" font-size="24" fill="rgba(255,255,255,0.8)" font-family="Arial">• Share Music</text>
    <text x="300" y="100" font-size="24" fill="rgba(255,255,255,0.8)" font-family="Arial">• Join Community</text>
  </g>
  
  <!-- URL -->
  <text x="280" y="560" font-size="28" fill="rgba(255,255,255,0.7)" font-family="Arial">
    studio-finder.vercel.app
  </text>
</svg> 