<svg width="32" height="32" viewBox="0 0 32 32" fill="none" xmlns="http://www.w3.org/2000/svg">
  <defs>
    <linearGradient id="gradient" x1="0%" y1="0%" x2="100%" y2="100%">
      <stop offset="0%" style="stop-color:#9333ea;stop-opacity:1" />
      <stop offset="100%" style="stop-color:#4f46e5;stop-opacity:1" />
    </linearGradient>
  </defs>
  <rect width="32" height="32" rx="8" fill="url(#gradient)"/>
  <path d="M12 8v12c0 1.1-.9 2-2 2s-2-.9-2-2 .9-2 2-2c.4 0 .7.1 1 .3V8h1z" fill="white"/>
  <path d="M22 6v14c0 1.1-.9 2-2 2s-2-.9-2-2 .9-2 2-2c.4 0 .7.1 1 .3V6h1z" fill="white"/>
  <circle cx="10" cy="20" r="1.5" fill="white"/>
  <circle cx="20" cy="20" r="1.5" fill="white"/>
  <path d="M13 8h8v2h-8z" fill="white" opacity="0.8"/>
</svg> 